<svg width="150" height="30" viewBox="0 0 150 30" fill="none" xmlns="http://www.w3.org/2000/svg">
    <path d="M22.2667 20.9969L20.6955 24.2818C20.6582 24.3592 20.5998 24.4245 20.527 24.4701C20.4542 24.5158 20.37 24.5401 20.2841 24.5401C20.1982 24.5401 20.114 24.5158 20.0412 24.4701C19.9684 24.4245 19.91 24.3592 19.8727 24.2818L15.5771 15.3179L14.9291 13.9768L14.2327 12.519L10.6303 5.00003H14.4562C14.6021 5.00005 14.745 5.04147 14.8682 5.11946C14.9915 5.19745 15.0901 5.3088 15.1527 5.44061L15.8427 6.87898L16.7984 8.87451L18.133 11.6638L19.4515 14.4109L20.1383 15.8492L22.2569 20.2712C22.3139 20.3834 22.3445 20.5071 22.3461 20.6329C22.3478 20.7587 22.3206 20.8832 22.2667 20.9969ZM28.7457 5.00003H25.6617L24.7643 6.87898C24.7522 6.90435 24.7332 6.92575 24.7094 6.94075C24.6856 6.95574 24.6581 6.96373 24.63 6.96373C24.6018 6.96373 24.5743 6.95574 24.5505 6.94075C24.5267 6.92575 24.5076 6.90435 24.4955 6.87898L23.8054 5.44061C23.7426 5.30904 23.6439 5.19792 23.5207 5.11997C23.3975 5.04203 23.2548 5.00044 23.109 5.00003H19.2831L24.2169 15.3083C24.2542 15.3857 24.3126 15.451 24.3854 15.4967C24.4582 15.5423 24.5424 15.5666 24.6283 15.5666C24.7142 15.5666 24.7984 15.5423 24.8712 15.4967C24.944 15.451 25.0024 15.3857 25.0397 15.3083L29.4455 6.11121C29.5021 5.99215 29.5274 5.86065 29.5192 5.72909C29.511 5.59752 29.4695 5.47021 29.3985 5.3591C29.3276 5.248 29.2296 5.15672 29.1137 5.09391C28.9978 5.03111 28.8678 4.99881 28.736 5.00003H28.7457ZM15.1656 23.4362L10.7598 14.236C10.7225 14.1585 10.6641 14.0933 10.5914 14.0476C10.5186 14.0019 10.4343 13.9776 10.3484 13.9776C10.2625 13.9776 10.1783 14.0019 10.1055 14.0476C10.0327 14.0933 9.97438 14.1585 9.93705 14.236L5 24.5442H8.82583C8.9721 24.544 9.11538 24.5025 9.23916 24.4246C9.36293 24.3467 9.46224 24.2354 9.52562 24.1036L10.2124 22.6652C10.2245 22.6399 10.2435 22.6185 10.2673 22.6035C10.2911 22.5885 10.3187 22.5805 10.3468 22.5805C10.3749 22.5805 10.4025 22.5885 10.4263 22.6035C10.4501 22.6185 10.4691 22.6399 10.4813 22.6652L11.3819 24.5442H14.4692C14.5998 24.5438 14.7282 24.5104 14.8424 24.4471C14.9566 24.3837 15.0529 24.2926 15.1224 24.182C15.192 24.0714 15.2323 23.945 15.2399 23.8146C15.2474 23.6843 15.2219 23.5541 15.1656 23.4362ZM95.383 12.1789C94.7767 11.5556 94.0429 11.0705 93.232 10.7567C91.4085 10.0915 89.4089 10.0915 87.5855 10.7567C86.7696 11.0703 86.0306 11.5552 85.4182 12.1789C84.7999 12.8187 84.325 13.5829 84.0252 14.4206C83.3687 16.3433 83.3687 18.4295 84.0252 20.3522C84.3249 21.1977 84.7995 21.9704 85.4182 22.6199C86.0265 23.2516 86.7664 23.7416 87.5855 24.055C89.4089 24.7202 91.4085 24.7202 93.232 24.055C94.0461 23.7413 94.7808 23.2512 95.383 22.6199C95.9977 21.9697 96.4679 21.1969 96.763 20.3522C97.4109 18.4281 97.4109 16.3448 96.763 14.4206C96.463 13.5823 95.987 12.8179 95.3668 12.1789H95.383ZM92.9728 20.8122C92.4188 21.5865 91.5668 21.9752 90.4103 21.9752C89.2538 21.9752 88.3727 21.5865 87.8187 20.8057C87.2647 20.025 86.9796 18.8912 86.9796 17.4042C86.9796 15.9173 87.2583 14.7834 87.8187 13.993C88.3791 13.2025 89.2376 12.8105 90.4103 12.8105C91.583 12.8105 92.4188 13.2025 92.9728 13.9897C93.5267 14.777 93.8021 15.9108 93.8021 17.4042C93.8021 18.8977 93.5105 20.038 92.9566 20.8122H92.9728ZM56.7839 6.07234V23.6501C56.7831 23.8866 56.6885 24.1132 56.521 24.2802C56.3534 24.4472 56.1264 24.5409 55.8898 24.5409H53.444V5.00003H55.7116C55.9929 5.00512 56.2611 5.12025 56.4585 5.3207C56.6559 5.52116 56.7669 5.79099 56.7677 6.07234H56.7839ZM63.4088 6.07234V23.6501C63.4088 23.8858 63.3154 24.1119 63.149 24.2788C62.9827 24.4458 62.7568 24.5401 62.5211 24.5409H60.0721V5.00003H62.3398C62.6208 5.00513 62.8885 5.12036 63.0854 5.3209C63.2824 5.52145 63.3927 5.79129 63.3926 6.07234H63.4088ZM82.5382 5.00003H81.1323L75.1359 17.5144C75.1172 17.5511 75.0887 17.582 75.0535 17.6036C75.0184 17.6251 74.9779 17.6366 74.9366 17.6366C74.8954 17.6366 74.855 17.6251 74.8198 17.6036C74.7847 17.582 74.7561 17.5511 74.7374 17.5144L69.1136 5.8164C68.9963 5.57246 68.8124 5.36667 68.5831 5.22279C68.3538 5.07891 68.0885 5.00281 67.8178 5.00328H65.0318L74.1544 24.0647C74.2235 24.2078 74.3316 24.3286 74.4663 24.413C74.6009 24.4975 74.7566 24.5424 74.9156 24.5424C75.0746 24.5424 75.2303 24.4975 75.365 24.413C75.4997 24.3286 75.6078 24.2078 75.6769 24.0647L83.8146 7.05713C83.9198 6.83842 83.9678 6.5966 83.9541 6.3543C83.9404 6.11199 83.8656 5.87712 83.7365 5.67163C83.6073 5.46613 83.4282 5.29674 83.2158 5.17929C83.0034 5.06184 82.7647 5.00016 82.522 5.00003H82.5382ZM41.9825 5.49245L32.86 24.5539H35.646C35.9166 24.554 36.1817 24.4777 36.4109 24.3339C36.6401 24.19 36.8241 23.9844 36.9418 23.7407L38.4903 20.5012H47.0038L48.9475 24.5442H50.3535C50.596 24.5443 50.8346 24.483 51.047 24.3659C51.2595 24.2489 51.4388 24.0799 51.5682 23.8748C51.6976 23.6697 51.7729 23.4351 51.7871 23.193C51.8013 22.9509 51.7539 22.7091 51.6493 22.4903L43.5083 5.48272C43.4395 5.33809 43.331 5.21607 43.1953 5.13097C43.0596 5.04586 42.9025 5.00119 42.7423 5.00221C42.5822 5.00323 42.4256 5.04991 42.291 5.13674C42.1565 5.22357 42.0494 5.34695 41.9825 5.49245ZM40.0874 17.1742L42.5462 12.0395C42.5644 12.0026 42.5925 11.9716 42.6274 11.9498C42.6623 11.9281 42.7026 11.9166 42.7438 11.9166C42.7849 11.9166 42.8253 11.9281 42.8602 11.9498C42.8951 11.9716 42.9232 12.0026 42.9414 12.0395L45.4002 17.1742H40.0874ZM103.858 11.7609V23.663C103.858 23.8993 103.764 24.1259 103.597 24.2929C103.43 24.46 103.203 24.5539 102.967 24.5539H100.521V10.6757H102.789C103.072 10.6766 103.344 10.7899 103.545 10.9909C103.745 11.1919 103.858 11.4642 103.858 11.748V11.7609ZM145 19.944C145.007 20.5782 144.882 21.2069 144.634 21.7906C144.392 22.352 144.027 22.8514 143.565 23.2516C143.058 23.6896 142.467 24.0202 141.828 24.2234C141.062 24.4658 140.261 24.5828 139.457 24.5701C138.988 24.5698 138.521 24.5264 138.061 24.4405C137.62 24.3547 137.187 24.2344 136.765 24.0809C136.362 23.9359 135.972 23.7548 135.602 23.5399C135.266 23.3487 134.951 23.1229 134.662 22.8661L135.433 21.5929C135.521 21.4504 135.641 21.3305 135.783 21.2431C135.941 21.1574 136.119 21.1159 136.298 21.1232C136.507 21.1237 136.71 21.1845 136.885 21.2982C137.07 21.4148 137.286 21.5411 137.533 21.6772C137.809 21.8246 138.096 21.9502 138.391 22.053C138.796 22.1821 139.22 22.2424 139.645 22.2311C139.99 22.2378 140.335 22.1897 140.665 22.0886C140.919 22.0064 141.155 21.8803 141.365 21.716C141.541 21.574 141.681 21.3918 141.773 21.1847C141.857 20.9846 141.899 20.7699 141.899 20.553C141.912 20.2593 141.807 19.9727 141.608 19.7561C141.387 19.5317 141.127 19.3495 140.84 19.2184C140.486 19.0522 140.12 18.9135 139.745 18.8037C139.334 18.6838 138.913 18.5478 138.485 18.4052C138.056 18.2609 137.637 18.0911 137.228 17.8966C136.828 17.7103 136.459 17.4621 136.136 17.1613C135.808 16.8524 135.545 16.4798 135.365 16.0663C135.159 15.5712 135.059 15.0379 135.074 14.5016C135.068 13.9451 135.179 13.3935 135.398 12.8818C135.626 12.365 135.966 11.9048 136.392 11.5342C136.87 11.1299 137.419 10.8189 138.012 10.6174C138.743 10.3743 139.51 10.2571 140.28 10.2708C141.173 10.259 142.059 10.4208 142.891 10.747C143.434 10.9603 143.946 11.2481 144.41 11.6022C144.537 11.7028 144.622 11.8474 144.648 12.0076C144.674 12.1677 144.639 12.3317 144.549 12.4672L144.093 13.1928C144.023 13.3143 143.927 13.4184 143.811 13.4973C143.695 13.5595 143.564 13.5897 143.432 13.5848C143.25 13.5799 143.071 13.5333 142.91 13.4488L142.262 13.1442C141.993 13.0232 141.716 12.9215 141.433 12.8397C141.074 12.7446 140.703 12.6988 140.332 12.7037C139.782 12.6737 139.236 12.8213 138.777 13.1248C138.598 13.2455 138.452 13.4088 138.353 13.6C138.253 13.7912 138.203 14.0042 138.206 14.2197C138.2 14.499 138.305 14.7692 138.498 14.9713C138.722 15.1922 138.983 15.372 139.269 15.5026C139.621 15.6677 139.985 15.8053 140.357 15.914C140.759 16.0372 141.177 16.17 141.598 16.3125C142.019 16.455 142.437 16.6365 142.845 16.8082C143.241 16.9858 143.607 17.2228 143.931 17.5111C144.279 17.8143 144.556 18.1915 144.739 18.6153C144.923 19.0391 145.01 19.4986 144.993 19.9602L145 19.944ZM118.546 21.9072C118.629 22.0129 118.671 22.1453 118.663 22.2796C118.655 22.4139 118.598 22.5407 118.504 22.6361C118.236 22.9057 117.945 23.1497 117.632 23.365C117.213 23.6503 116.761 23.8862 116.288 24.0679C115.823 24.2424 115.341 24.3673 114.849 24.4405C114.361 24.5096 113.869 24.5453 113.375 24.5474C112.545 24.5512 111.722 24.3881 110.955 24.0679C110.202 23.75 109.527 23.2725 108.976 22.6685C108.388 22.0136 107.933 21.2498 107.638 20.4202C107.294 19.446 107.126 18.418 107.142 17.3848C107.134 16.4233 107.283 15.467 107.583 14.5534C107.857 13.7174 108.298 12.9458 108.879 12.2857C109.462 11.6389 110.181 11.1289 110.985 10.7923C111.902 10.4184 112.887 10.2354 113.878 10.2546C114.81 10.2329 115.738 10.4027 116.602 10.7535C117.232 11.0222 117.816 11.3884 118.332 11.8387C118.436 11.9286 118.503 12.0543 118.519 12.191C118.535 12.3277 118.5 12.4655 118.419 12.5773L117.823 13.4002C117.74 13.5109 117.643 13.611 117.535 13.6982C117.412 13.7775 117.266 13.815 117.12 13.8051C116.942 13.8041 116.768 13.75 116.621 13.6496C116.459 13.5492 116.265 13.4293 116.038 13.2997C115.782 13.1566 115.513 13.0383 115.235 12.9466C114.861 12.8355 114.472 12.783 114.082 12.7911C113.55 12.7827 113.023 12.8934 112.54 13.1151C112.102 13.3215 111.723 13.6345 111.438 14.0254C111.13 14.4578 110.91 14.9465 110.79 15.4637C110.638 16.0903 110.565 16.7335 110.573 17.3783C110.565 18.0434 110.645 18.7068 110.81 19.3512C110.942 19.875 111.173 20.3687 111.49 20.8057C111.776 21.183 112.147 21.4881 112.572 21.6966C113.022 21.904 113.512 22.008 114.007 22.0011C114.448 22.015 114.887 21.9481 115.303 21.8035C115.595 21.6915 115.874 21.5458 116.132 21.3694C116.356 21.2139 116.553 21.0682 116.719 20.9386C116.878 20.8119 117.076 20.7433 117.279 20.7442C117.4 20.7383 117.521 20.7653 117.628 20.8223C117.735 20.8793 117.825 20.9643 117.888 21.0681L118.546 21.9072ZM100.728 7.26122C100.642 7.06655 100.599 6.85547 100.602 6.6425C100.598 6.42006 100.641 6.19929 100.728 5.99459C100.81 5.80238 100.928 5.62753 101.075 5.47948C101.223 5.33324 101.396 5.21572 101.587 5.13287C101.783 5.04826 101.995 5.00524 102.209 5.00652C102.431 5.00371 102.652 5.04672 102.857 5.13287C103.05 5.21565 103.227 5.33311 103.378 5.47948C103.531 5.62606 103.653 5.80108 103.738 5.99459C103.827 6.19887 103.872 6.41961 103.871 6.6425C103.872 6.85593 103.826 7.06702 103.738 7.26122C103.651 7.45087 103.529 7.62237 103.378 7.76661C103.227 7.91298 103.05 8.03044 102.857 8.11322C102.652 8.20112 102.431 8.24421 102.209 8.23957C101.995 8.24251 101.783 8.19942 101.587 8.11322C101.203 7.94767 100.897 7.64334 100.728 7.26122ZM131.322 11.9035C130.785 11.365 130.139 10.9475 129.427 10.6789C128.655 10.3948 127.837 10.2543 127.014 10.2643C126.056 10.2485 125.105 10.4316 124.221 10.8021C123.429 11.1407 122.717 11.6405 122.129 12.2696C121.546 12.8986 121.098 13.6392 120.81 14.4465C120.499 15.3008 120.344 16.2037 120.35 17.1127C120.329 18.2071 120.508 19.2961 120.878 20.3263C121.194 21.1923 121.686 21.9832 122.323 22.649C122.932 23.2726 123.669 23.7567 124.484 24.0679C125.344 24.3921 126.257 24.5546 127.176 24.5474C127.68 24.5445 128.183 24.5088 128.682 24.4405C129.202 24.3662 129.713 24.2415 130.208 24.0679C130.713 23.8898 131.196 23.6539 131.646 23.365C131.974 23.1564 132.278 22.9131 132.553 22.6393C132.649 22.5438 132.706 22.4167 132.715 22.2818C132.723 22.147 132.682 22.0138 132.599 21.9072L131.918 21.0617C131.855 20.9588 131.765 20.8746 131.658 20.8177C131.551 20.7608 131.431 20.7332 131.309 20.7377C131.081 20.7421 130.857 20.8069 130.662 20.9256C130.441 21.0519 130.185 21.1913 129.891 21.3435C129.562 21.5121 129.22 21.6519 128.867 21.7614C128.412 21.897 127.939 21.9615 127.464 21.9525C126.978 21.9744 126.493 21.8971 126.038 21.7256C125.583 21.5541 125.168 21.2918 124.817 20.9547C124.15 20.2842 123.765 19.2411 123.671 17.8189H132.236C132.365 17.8218 132.494 17.8009 132.615 17.7573C132.714 17.7164 132.797 17.6448 132.851 17.5532C132.92 17.4329 132.96 17.2991 132.971 17.1613C132.997 16.9528 133.009 16.7428 133.007 16.5328C133.022 15.6231 132.871 14.7184 132.56 13.8634C132.289 13.1256 131.865 12.4533 131.316 11.8905L131.322 11.9035ZM123.742 15.8168C123.832 14.9442 124.201 14.1239 124.795 13.4779C125.286 13.0702 125.877 12.8019 126.508 12.701C127.138 12.6001 127.784 12.6704 128.378 12.9045C128.732 13.0595 129.047 13.2932 129.298 13.588C129.544 13.8821 129.727 14.224 129.835 14.5923C129.955 14.9894 130.015 15.4021 130.014 15.8168H123.742Z" fill="#16274C"/>
    </svg>