<svg width="156.64px" height="82" viewBox="0 0 157 82" fill="none" xmlns="http://www.w3.org/2000/svg">
    <path d="M34.9844 39.8867H31.3828L31.0547 38.0156C29.5859 39.6719 27.0664 40.2461 25.0859 40.2461C18.6055 40.2461 14.4062 36.2852 14.4062 31.3203C14.4062 26.3516 18.6055 22.3906 25.0859 22.3906C29.5234 22.3906 34.2656 24.2852 34.7734 28.582H29.1953C29.0156 27.1172 27.2148 26.2305 24.9648 26.2305C21.3672 26.2305 19.9844 28.7734 19.9844 31.3203C19.9844 33.8633 21.3672 36.4062 24.9648 36.4062C27.7266 36.4062 29.5859 35.375 29.8828 33.8125H25.9844V30.5H34.9844V39.8867Z" fill="#003057"/>
    <path d="M47.5195 32.375C47.4297 30.9805 46.1992 29.8281 44.4883 29.8281C42.6914 29.8281 41.4883 30.8594 41.1914 32.375H47.5195ZM41.1914 34.6523C41.2813 36.3594 42.5117 37.4844 44.6719 37.4844C45.8984 37.4844 47.1016 37.0312 47.5781 36.1172H52.3516C51.4219 39 48.0898 40.2461 44.6094 40.2461C39.5391 40.2461 36.0898 37.7969 36.0898 33.6211C36.0898 29.8047 39.8984 27.0703 44.4883 27.0703C50.0703 27.0703 52.8594 30.4297 52.6211 34.6523H41.1914Z" fill="#003057"/>
    <path d="M61.6055 37.125C63.9766 37.125 64.7266 35.2539 64.7266 33.668C64.7266 32.0859 63.9766 30.1914 61.6055 30.1914C59.2344 30.1914 58.5156 32.0859 58.5156 33.668C58.5156 35.2539 59.2344 37.125 61.6055 37.125ZM61.6055 27.0703C66.4336 27.0703 69.8242 29.9258 69.8242 33.668C69.8242 37.4141 66.4336 40.2461 61.6055 40.2461C56.7773 40.2461 53.4141 37.4141 53.4141 33.668C53.4141 29.9258 56.7773 27.0703 61.6055 27.0703Z" fill="#003057"/>
    <path d="M70.6719 27.4297H75.6211V29.6133H75.6797C76.4297 28.0313 78.1719 27.1914 80.3594 27.1914C80.75 27.1914 81.1719 27.2148 81.5586 27.2852V31.0039C80.9023 30.8633 80.3008 30.7656 79.6094 30.7656C77.0898 30.7656 75.7695 32.1602 75.7695 33.7188V39.8867H70.6719V27.4297Z" fill="#003057"/>
    <path d="M89.9336 30.1914C87.6836 30.1914 86.9648 31.7734 86.9648 33.3086C86.9648 34.7734 87.8047 36.2383 89.9023 36.2383C92.0625 36.2383 92.9922 34.8945 92.9922 33.3359C92.9922 31.75 92.2148 30.1914 89.9336 30.1914ZM97.8242 38.375C97.8242 40.4141 97.3437 44.2539 90.0547 44.2539C86.4219 44.2539 83.0039 43.6055 82.4023 40.2695H87.5039C87.625 40.8203 87.8945 41.1602 88.375 41.3516C88.8242 41.543 89.457 41.6133 90.2344 41.6133C92.6641 41.6133 92.9023 40.2461 92.9023 38.7109V37.5352H92.8438C91.9141 38.6875 90.3555 39.3594 88.707 39.3594C83.9922 39.3594 81.8633 36.668 81.8633 33.168C81.8633 29.8555 84.293 27.0703 88.707 27.0703C90.5625 27.0703 91.9727 27.7188 92.875 28.9883H92.9336V27.4297H97.8242V38.375Z" fill="#003057"/>
    <path d="M104.867 25.8672H99.7695V22.75H104.867V25.8672ZM99.7695 27.4297H104.867V39.8867H99.7695V27.4297Z" fill="#003057"/>
    <path d="M112.969 37.7266C115.398 37.7266 116.207 36.6211 116.09 34.0547C115.367 34.4141 114.047 34.4844 112.938 34.7266C111.797 34.9414 110.84 35.3242 110.84 36.3086C110.84 37.3164 111.828 37.7266 112.969 37.7266ZM106.367 31.2695C106.457 29.6367 107.418 28.582 108.797 27.9336C110.18 27.3086 111.977 27.0703 113.746 27.0703C117.437 27.0703 121.008 27.7187 121.008 31.2461V36.6953C121.008 37.75 121.008 38.9023 121.609 39.8867H116.477C116.297 39.5 116.238 39.1172 116.18 38.7109C114.859 39.8125 112.906 40.2461 111.047 40.2461C108.078 40.2461 105.738 39.0469 105.738 36.4766C105.738 32.4219 111.258 32.7344 114.797 32.1602C115.668 32.0117 116.148 31.7734 116.148 31.0039C116.148 30.0703 114.738 29.7109 113.688 29.7109C112.277 29.7109 111.379 30.2148 111.137 31.2695H106.367Z" fill="#003057"/>
    <path d="M75.2852 46.8398H68.8945V60.1367H63.3164V46.8398H56.9258V43H75.2852V46.8398Z" fill="#003057"/>
    <path d="M82.2109 52.625C82.1211 51.2305 80.8945 50.0781 79.1836 50.0781C77.3828 50.0781 76.1836 51.1094 75.8828 52.625H82.2109ZM75.8828 54.9023C75.9727 56.6094 77.2031 57.7344 79.3633 57.7344C80.5938 57.7344 81.793 57.2812 82.2734 56.3672H87.043C86.1133 59.25 82.7812 60.4961 79.3047 60.4961C74.2344 60.4961 70.7852 58.0469 70.7852 53.8711C70.7852 50.0547 74.5937 47.3203 79.1836 47.3203C84.7617 47.3203 87.5508 50.6797 87.3125 54.9023H75.8828Z" fill="#003057"/>
    <path d="M99.332 52.2383C99.3047 51.1836 98.1328 50.4375 96.8438 50.4375C93.9922 50.4375 93.543 52.3828 93.543 54.1133C93.543 55.7188 94.4141 57.375 96.5742 57.375C98.3437 57.375 99.2422 56.5586 99.4844 55.2383H104.434C103.984 58.5742 100.742 60.4961 96.6016 60.4961C91.9219 60.4961 88.4453 57.9297 88.4453 54.1133C88.4453 50.1523 91.5938 47.3203 96.6016 47.3203C100.473 47.3203 103.922 48.9531 104.281 52.2383H99.332Z" fill="#003057"/>
    <path d="M105.477 43H110.578V49.3828H110.637C111.414 48.1094 113.516 47.3203 115.375 47.3203C120.566 47.3203 120.984 50.3438 120.984 52.1445V60.1367H115.887V54.1133C115.887 52.4063 116.125 50.6797 113.336 50.6797C111.414 50.6797 110.578 51.9766 110.578 53.3438V60.1367H105.477V43Z" fill="#003057"/>
    <path d="M141.262 66.5898C141.496 66.5898 141.82 66.5508 141.82 66.207C141.82 65.8906 141.578 65.8242 141.324 65.8242H140.848V66.5898H141.262ZM140.766 65.7461H141.332C141.719 65.7461 141.898 65.918 141.898 66.207C141.898 66.5 141.691 66.6367 141.449 66.6562L141.98 67.4648H141.879L141.363 66.6641C141.324 66.668 141.285 66.668 141.238 66.668H140.848V67.4648H140.766V65.7461ZM141.27 67.9922C142.055 67.9922 142.688 67.3594 142.688 66.5781C142.688 65.793 142.055 65.1602 141.27 65.1602C140.488 65.1602 139.855 65.793 139.855 66.5781C139.855 67.3594 140.488 67.9922 141.27 67.9922ZM141.27 65.082C142.098 65.082 142.766 65.75 142.766 66.5781C142.766 67.4023 142.098 68.0703 141.27 68.0703C140.445 68.0703 139.777 67.4023 139.777 66.5781C139.777 65.75 140.445 65.082 141.27 65.082Z" fill="#003057"/>
    <path d="M128.227 63.3555H132.582L128.227 47.0039V63.3555ZM133.625 64.1562H127.426V43.9531L128.211 43.8477L133.625 64.1562Z" fill="#003057"/>
    <path d="M133.625 63.3555H137.984V47.0039L133.625 63.3555ZM138.785 64.1562H132.582L138 43.8477L138.785 43.9531V64.1562Z" fill="#003057"/>
    <path d="M135.344 53.6758L133.105 20.0469L130.863 53.6758L130.062 53.6211L132.703 14.0078H133.504L136.145 53.6211L135.344 53.6758Z" fill="#003057"/>
    <path d="M128.227 67.4023H137.984V66.1836H128.227V67.4023ZM138.785 68.2031H127.426V65.3828H138.785V68.2031Z" fill="#003057"/>
    </svg>