<svg width="100" height="51" viewBox="0 0 100 51" fill="none" xmlns="http://www.w3.org/2000/svg">
<g opacity="0.974563">
<g opacity="0.974563">
<path opacity="0.974563" fill-rule="evenodd" clip-rule="evenodd" d="M20.0351 30.4288V24.2395C20.0351 24.0191 19.8565 23.8404 19.636 23.8404H13.4785V17.4517H25.994C26.2144 17.4517 26.3931 17.6304 26.3931 17.8508V30.4288H20.0351Z" fill="#8E75FF"/>
<path opacity="0.404989" fill-rule="evenodd" clip-rule="evenodd" d="M13.4782 17.4517V23.8404H7.6004C7.4902 23.8404 7.40088 23.7511 7.40088 23.6408C7.40088 23.5881 7.42175 23.5375 7.45897 23.5001L13.4782 17.4517Z" fill="#8E75FF"/>
<path opacity="0.404989" fill-rule="evenodd" clip-rule="evenodd" d="M20.0347 36.3341V30.4287H26.3926L20.3757 36.4749C20.2979 36.553 20.1716 36.5533 20.0934 36.4756C20.0558 36.4381 20.0347 36.3872 20.0347 36.3341Z" fill="#8E75FF"/>
<path opacity="0.404989" fill-rule="evenodd" clip-rule="evenodd" d="M13.4785 23.8403H19.8356C19.9458 23.8403 20.0351 23.9297 20.0351 24.0399V30.4288H13.8776C13.6572 30.4288 13.4785 30.25 13.4785 30.0296V23.8403Z" fill="#8E75FF"/>
</g>
</g>
<path d="M50.8853 21.8623H48.3706V26.628C48.3706 27.0252 48.4696 27.3154 48.6677 27.4986C48.8657 27.682 49.1551 27.7851 49.536 27.808C49.8844 27.8289 50.3093 27.8275 50.8107 27.8038C50.8289 27.8029 50.8526 27.8017 50.8818 27.8002C50.919 27.7983 50.9508 27.8269 50.9526 27.8642C50.9527 27.8654 50.9528 27.8665 50.9528 27.8676V30.4169C50.9528 30.4513 50.9269 30.4801 50.8927 30.4839C50.8739 30.486 50.8585 30.4877 50.8462 30.489C48.8764 30.6995 47.4838 30.5046 46.6682 29.9045C45.838 29.2935 45.4228 28.2013 45.4228 26.628V21.8623H43.5022C43.465 21.8623 43.4347 21.832 43.4347 21.7948V19.0887C43.4347 19.0514 43.465 19.0212 43.5022 19.0212H45.4228V17.1283C45.4228 17.0749 45.4544 17.0264 45.5033 17.0049L48.2759 15.7814C48.3099 15.7663 48.3498 15.7817 48.3648 15.8158C48.3686 15.8244 48.3706 15.8337 48.3706 15.8431V19.0212H50.8853C50.9225 19.0212 50.9528 19.0514 50.9528 19.0887V21.7948C50.9528 21.832 50.9225 21.8623 50.8853 21.8623ZM56.2977 20.9916C56.5718 20.2584 57.0251 19.7086 57.6573 19.342C58.2359 19.0065 58.875 18.8245 59.5748 18.796C59.6059 18.7947 59.6484 18.7937 59.7025 18.7929C59.7398 18.7923 59.7704 18.8221 59.771 18.8594C59.771 18.8597 59.771 18.86 59.771 18.8604V21.9681C59.771 22.0294 59.7213 22.0792 59.6599 22.0792C59.6565 22.0792 59.6532 22.079 59.6499 22.0787C58.7998 22.0016 58.0366 22.1891 57.3602 22.6413C56.6519 23.1148 56.2977 23.9015 56.2977 25.0012V30.4098C56.2977 30.4471 56.2675 30.4773 56.2302 30.4773H53.4173C53.3801 30.4773 53.3498 30.4471 53.3498 30.4098V19.0887C53.3498 19.0514 53.3801 19.0212 53.4173 19.0212H56.2302C56.2675 19.0212 56.2977 19.0514 56.2977 19.0887V20.9916ZM70.2357 19.0212H73.0485C73.0858 19.0212 73.116 19.0514 73.116 19.0887V30.4098C73.116 30.4471 73.0858 30.4773 73.0485 30.4773H70.2357C70.1984 30.4773 70.1682 30.4471 70.1682 30.4098V29.1255C69.2846 30.2405 68.0431 30.798 66.4435 30.798C64.9201 30.798 63.6138 30.2138 62.5246 29.0452C61.4353 27.8767 60.8907 26.4447 60.8907 24.7492C60.8907 23.0537 61.4353 21.6217 62.5246 20.4532C63.6138 19.2847 64.9201 18.7004 66.4435 18.7004C68.0431 18.7004 69.2846 19.258 70.1682 20.373V19.0887C70.1682 19.0514 70.1984 19.0212 70.2357 19.0212ZM64.7297 27.0863C65.3238 27.682 66.0778 27.9798 66.9919 27.9798C67.9059 27.9798 68.6638 27.6782 69.2656 27.0748C69.8673 26.4714 70.1682 25.6962 70.1682 24.7492C70.1682 23.8022 69.8673 23.027 69.2656 22.4237C68.6638 21.8203 67.9059 21.5186 66.9919 21.5186C66.0778 21.5186 65.3238 21.8203 64.7297 22.4237C64.1355 23.027 63.8385 23.8022 63.8385 24.7492C63.8385 25.6962 64.1355 26.4753 64.7297 27.0863ZM81.9777 18.7004C83.5163 18.7004 84.8299 19.2847 85.9193 20.4532C87.0086 21.6217 87.5533 23.0537 87.5533 24.7492C87.5533 26.4447 87.0086 27.8767 85.9193 29.0452C84.8299 30.2138 83.5163 30.798 81.9777 30.798C80.3777 30.798 79.144 30.2405 78.2751 29.1255V34.9922C78.2751 35.0295 78.2455 35.0597 78.2078 35.0597H75.3955C75.3578 35.0597 75.3275 35.0295 75.3275 34.9922V19.0887C75.3275 19.0514 75.3578 19.0212 75.3955 19.0212H78.2078C78.2455 19.0212 78.2751 19.0514 78.2751 19.0887V20.373C79.144 19.258 80.3777 18.7004 81.9777 18.7004ZM79.1669 27.0863C79.7605 27.682 80.5146 27.9798 81.4286 27.9798C82.3433 27.9798 83.1011 27.6782 83.7028 27.0748C84.3045 26.4714 84.6049 25.6962 84.6049 24.7492C84.6049 23.8022 84.3045 23.027 83.7028 22.4237C83.1011 21.8203 82.3433 21.5186 81.4286 21.5186C80.5146 21.5186 79.7605 21.8203 79.1669 22.4237C78.5727 23.027 78.2751 23.8022 78.2751 24.7492C78.2751 25.6962 78.5727 26.4753 79.1669 27.0863ZM90.7711 17.6465C90.2834 17.6465 89.8609 17.467 89.5027 17.108C89.1445 16.7491 88.9661 16.3251 88.9661 15.8364C88.9661 15.3476 89.1445 14.9199 89.5027 14.5533C89.8609 14.1867 90.2834 14.0034 90.7711 14.0034C91.2736 14.0034 91.7044 14.1867 92.0618 14.5533C92.42 14.9199 92.5991 15.3476 92.5991 15.8364C92.5991 16.3251 92.42 16.7491 92.0618 17.108C91.7044 17.467 91.2736 17.6465 90.7711 17.6465ZM89.3088 30.4098V19.0887C89.3088 19.0514 89.3391 19.0212 89.3761 19.0212H92.1891C92.2261 19.0212 92.2564 19.0514 92.2564 19.0887V30.4098C92.2564 30.4471 92.2261 30.4773 92.1891 30.4773H89.3761C89.3391 30.4773 89.3088 30.4471 89.3088 30.4098ZM36.5109 22.2747C36.5109 22.5802 36.7127 22.8284 37.1164 23.0193C37.5201 23.2103 38.0115 23.3783 38.5903 23.5234C39.1692 23.6685 39.7481 23.8518 40.327 24.0733C40.9059 24.2948 41.3972 24.6652 41.8009 25.1845C42.2046 25.7039 42.4065 26.353 42.4065 27.1321C42.4065 28.3082 41.9685 29.2132 41.0925 29.8472C40.2166 30.4811 39.1236 30.798 37.8134 30.798C35.52 30.798 33.9399 29.9295 33.0732 28.1924C33.0658 28.1774 33.0563 28.158 33.0448 28.1343C33.0286 28.1008 33.0427 28.0604 33.0763 28.0442C33.0769 28.0439 33.0775 28.0436 33.0782 28.0433L35.5576 26.9418C35.6228 26.9127 35.6994 26.9396 35.7322 27.003C35.7326 27.0037 35.733 27.0044 35.7333 27.005C36.1195 27.7466 36.8129 28.1173 37.8134 28.1173C38.8645 28.1173 39.3901 27.7889 39.3901 27.1321C39.3901 26.8266 39.1882 26.5784 38.7845 26.3874C38.3809 26.1965 37.8896 26.0247 37.3107 25.8719C36.7318 25.7192 36.1529 25.5282 35.574 25.2991C34.9951 25.07 34.5039 24.7072 34.1001 24.2108C33.6964 23.7143 33.4946 23.0919 33.4946 22.3434C33.4946 21.2131 33.9097 20.3234 34.7399 19.6742C35.5702 19.025 36.6023 18.7004 37.8363 18.7004C38.7655 18.7004 39.611 18.9104 40.3727 19.3305C41.0642 19.7118 41.6157 20.2124 42.042 20.8843C42.0637 20.9186 42.0929 20.9668 42.1296 21.0289C42.1486 21.061 42.1379 21.1023 42.1058 21.1213C42.1035 21.1226 42.1012 21.1238 42.0988 21.1249L39.613 22.2276C39.5691 22.2471 39.5176 22.2318 39.4913 22.1916C39.1182 21.6208 38.5666 21.3353 37.8363 21.3353C37.4554 21.3353 37.1393 21.4193 36.888 21.5873C36.6366 21.7554 36.5109 21.9845 36.5109 22.2747Z" fill="#2F2E8B"/>
</svg>
