<svg width="100" height="51" viewBox="0 0 100 51" fill="none" xmlns="http://www.w3.org/2000/svg">
<path d="M11.504 33.5336C10.1038 33.5336 9.06464 33.1504 8.38664 32.3839C7.70863 31.6027 7.36963 30.4236 7.36963 28.8465V22.0812H10.7081V28.8465C10.7081 29.554 10.8481 30.0772 11.1281 30.4162C11.4229 30.7552 11.8725 30.9247 12.4768 30.9247C13.1401 30.9247 13.6854 30.6963 14.1128 30.2394C14.555 29.7677 14.7761 29.1413 14.7761 28.3601V22.0812H18.1146V33.2904H14.8645V31.1458H15.1741C14.8351 31.8975 14.3487 32.4871 13.7149 32.9145C13.0958 33.3272 12.3589 33.5336 11.504 33.5336ZM20.8654 33.2904V24.9995C20.8654 24.5279 20.8507 24.0489 20.8212 23.5625C20.7917 23.0613 20.7475 22.5676 20.6885 22.0812H23.8943L24.1375 24.1594H23.8722C24.2407 23.4224 24.7639 22.855 25.442 22.457C26.12 22.0591 26.9085 21.8601 27.8076 21.8601C29.1194 21.8601 30.0996 22.2433 30.7481 23.0097C31.4114 23.7615 31.743 24.9332 31.743 26.5251V33.2904H28.4045V26.6798C28.4045 25.8692 28.2572 25.2943 27.9624 24.9553C27.6676 24.6163 27.2254 24.4468 26.6358 24.4468C25.8989 24.4468 25.3093 24.6827 24.8671 25.1543C24.4249 25.6112 24.2039 26.2303 24.2039 27.0115V33.2904H20.8654ZM34.6454 33.2904V17.7036H40.5927C42.4057 17.7036 43.9386 18.0131 45.1914 18.6322C46.4442 19.2512 47.3875 20.143 48.0213 21.3074C48.6699 22.457 48.9941 23.8499 48.9941 25.4859C48.9941 27.1073 48.6699 28.5001 48.0213 29.6645C47.3875 30.8289 46.4442 31.728 45.1914 32.3618C43.9386 32.9809 42.4057 33.2904 40.5927 33.2904H34.6454ZM38.0944 30.4604H40.3938C42.133 30.4604 43.4227 30.0551 44.2628 29.2445C45.1177 28.4191 45.5451 27.1662 45.5451 25.4859C45.5451 23.7909 45.1177 22.5381 44.2628 21.7274C43.4227 20.9168 42.133 20.5114 40.3938 20.5114H38.0944V30.4604ZM51.4589 33.2904V25.0438C51.4589 24.5574 51.4442 24.0636 51.4147 23.5625C51.3999 23.0613 51.3631 22.5676 51.3041 22.0812H54.5099L54.8858 25.3533H54.3773C54.5247 24.5574 54.7605 23.9015 55.0847 23.3856C55.4238 22.8697 55.8365 22.4865 56.3228 22.2359C56.824 21.9854 57.3914 21.8601 58.0252 21.8601C58.3053 21.8601 58.5264 21.8748 58.6885 21.9043C58.8506 21.919 59.0128 21.9559 59.1749 22.0148L59.1528 24.9553C58.8433 24.8227 58.578 24.7416 58.3569 24.7121C58.1505 24.6679 57.8852 24.6458 57.5609 24.6458C56.9419 24.6458 56.426 24.7637 56.0133 24.9995C55.6154 25.2354 55.3132 25.5817 55.1069 26.0387C54.9152 26.4956 54.8194 27.0483 54.8194 27.6968V33.2904H51.4589ZM64.8182 33.5336C63.8454 33.5336 62.9905 33.2978 62.2536 32.8261C61.5166 32.3544 60.9418 31.6838 60.5291 30.8142C60.1164 29.9446 59.91 28.8981 59.91 27.6747C59.91 26.4661 60.1164 25.427 60.5291 24.5574C60.9418 23.6878 61.5166 23.0245 62.2536 22.5676C62.9905 22.0959 63.8454 21.8601 64.8182 21.8601C65.7173 21.8601 66.5206 22.0812 67.2281 22.5234C67.9503 22.9508 68.4219 23.533 68.643 24.27H68.3998L68.6651 22.0812H71.8709C71.8267 22.5676 71.7825 23.0613 71.7383 23.5625C71.7088 24.0489 71.6941 24.5279 71.6941 24.9995V33.2904H68.3777L68.3556 31.19H68.6209C68.3851 31.8975 67.9134 32.465 67.2059 32.8924C66.4985 33.3199 65.7025 33.5336 64.8182 33.5336ZM65.8352 31.0132C66.6016 31.0132 67.2207 30.7405 67.6923 30.1951C68.164 29.6498 68.3998 28.8096 68.3998 27.6747C68.3998 26.5398 68.164 25.707 67.6923 25.1764C67.2207 24.6458 66.6016 24.3805 65.8352 24.3805C65.0688 24.3805 64.4497 24.6458 63.9781 25.1764C63.5064 25.707 63.2706 26.5398 63.2706 27.6747C63.2706 28.8096 63.499 29.6498 63.9559 30.1951C64.4276 30.7405 65.054 31.0132 65.8352 31.0132ZM77.4856 33.2904L72.9753 22.0812H76.4022L79.3648 30.1509H78.79L81.7749 22.0812H83.9858L86.9484 30.1509H86.4841L89.4025 22.0812H92.6304L88.1423 33.2904H85.2681L82.0844 25.0217H83.4331L80.3597 33.2904H77.4856Z" fill="black"/>
</svg>
