<svg width="100" height="51" viewBox="0 0 100 51" fill="none" xmlns="http://www.w3.org/2000/svg">
<path fill-rule="evenodd" clip-rule="evenodd" d="M36.806 11.9521H43.045L27.2911 39.0999L11.4336 11.9521H17.8145L27.2911 28.2956L36.806 11.9521Z" fill="#41B883"/>
<path fill-rule="evenodd" clip-rule="evenodd" d="M30.8878 11.9634H36.8216L27.2608 28.341L17.7769 11.9634H23.6179L27.2608 18.2685L30.8878 11.9634Z" fill="#35495E"/>
<path fill-rule="evenodd" clip-rule="evenodd" d="M46.8179 16.614C46.8179 16.4138 46.9291 16.2468 47.1515 16.1133C47.3738 15.9797 47.6062 15.9131 47.8488 15.9131C48.1857 15.9131 48.3946 16.0399 48.4754 16.2936L52.033 28.1898L55.5703 16.2936C55.6647 16.0399 55.8668 15.9131 56.1768 15.9131C56.4328 15.9131 56.672 15.9865 56.8944 16.1333C57.1167 16.2802 57.2279 16.4471 57.2279 16.6341C57.2279 16.6473 57.2245 16.6674 57.2178 16.6941C57.2111 16.7209 57.2076 16.7475 57.2076 16.7743L53.1044 30.0925C52.9561 30.4796 52.599 30.6732 52.033 30.6732C51.4671 30.6732 51.1234 30.4796 51.0022 30.0925L46.8586 16.7743C46.8316 16.6941 46.8181 16.6407 46.8181 16.614H46.8179ZM57.3871 26.8679V21.6609C57.3871 21.5006 57.4714 21.3605 57.6398 21.2403C57.8083 21.1201 58.0071 21.0601 58.2362 21.0601C58.4517 21.0601 58.6438 21.1235 58.8122 21.2504C58.9807 21.3772 59.0649 21.514 59.0649 21.6608V26.8679C59.0649 27.4687 59.294 28.0094 59.7522 28.4901C60.2103 28.9707 60.7561 29.2111 61.3894 29.2111C62.0094 29.2111 62.5483 28.9741 63.0066 28.5001C63.4647 28.0261 63.6938 27.482 63.6938 26.8679V21.6406C63.6938 21.4937 63.778 21.3601 63.9464 21.24C64.115 21.1198 64.3137 21.0598 64.5428 21.0598C64.7853 21.0598 64.9841 21.1165 65.1391 21.23C65.2941 21.3434 65.3715 21.4803 65.3715 21.6406V26.8679C65.3715 27.896 64.9774 28.7939 64.189 29.5615C63.4007 30.3293 62.4675 30.7131 61.3896 30.7131C60.298 30.7131 59.358 30.3293 58.5697 29.5615C57.7814 28.7939 57.3872 27.896 57.3872 26.8679H57.3871ZM66.7433 26.8279V24.7249C66.7433 23.6969 67.1375 22.809 67.9259 22.0613C68.7141 21.3136 69.6608 20.9398 70.7658 20.9398C71.8169 20.9398 72.7266 21.2903 73.4947 21.9913C74.2628 22.6921 74.6468 23.57 74.6468 24.6249C74.6468 25.012 74.5996 25.3224 74.5053 25.5561C74.411 25.7898 74.2661 25.9566 74.0707 26.0568C73.8753 26.157 73.6934 26.2204 73.525 26.247C73.3566 26.2738 73.1308 26.2872 72.8478 26.2872H68.4209V26.8879C68.4209 27.6223 68.6871 28.2097 69.2195 28.6504C69.7517 29.091 70.4423 29.3112 71.2913 29.3112C71.736 29.3112 72.1235 29.2445 72.4535 29.111C72.7837 28.9775 73.0499 28.8473 73.252 28.7205C73.4541 28.5937 73.6159 28.5302 73.7371 28.5302C73.9258 28.5302 74.0875 28.6137 74.2223 28.7806C74.357 28.9474 74.4243 29.1177 74.4243 29.2912C74.4243 29.5983 74.1178 29.9121 73.5046 30.2325C72.8916 30.5529 72.1335 30.7132 71.2306 30.7132C69.91 30.7132 68.832 30.356 67.9965 29.6417C67.161 28.9274 66.7433 27.9895 66.7433 26.8279ZM68.4211 25.1656H72.1605C72.5109 25.1656 72.7467 25.1222 72.868 25.0354C72.9893 24.9487 73.0499 24.7784 73.0499 24.5247C73.0499 23.9239 72.8277 23.3964 72.3829 22.9425C71.9382 22.4886 71.3925 22.2615 70.7456 22.2615C70.1123 22.2615 69.5665 22.4719 69.1083 22.8925C68.6502 23.313 68.4211 23.8303 68.4211 24.4446V25.1656ZM75.4934 29.6316C75.4934 29.3379 75.5944 29.0875 75.7965 28.8805C75.9986 28.6736 76.248 28.5701 76.5445 28.5701C76.8274 28.5701 77.0699 28.6736 77.2721 28.8805C77.4742 29.0875 77.5753 29.3379 77.5753 29.6316C77.5753 29.9119 77.4742 30.1556 77.2721 30.3625C77.0699 30.5695 76.8274 30.673 76.5445 30.673C76.248 30.673 75.9986 30.5695 75.7965 30.3625C75.5944 30.1556 75.4934 29.9119 75.4934 29.6316ZM76.9866 34.4181C76.9866 34.2046 77.0541 34.0277 77.1887 33.8875C77.3235 33.7473 77.4852 33.6771 77.6739 33.6771C78.1995 33.6771 78.543 33.4836 78.7048 33.0964C78.8665 32.7092 78.9473 32.1285 78.9473 31.3541V21.6407C78.9473 21.4671 79.0248 21.327 79.1798 21.2202C79.3348 21.1133 79.5335 21.0599 79.7761 21.0599C80.0186 21.0599 80.2208 21.1133 80.3825 21.2202C80.5443 21.327 80.6251 21.4671 80.6251 21.6407V31.3541C80.6251 32.5156 80.396 33.4369 79.9378 34.1178C79.4797 34.7988 78.7857 35.1392 77.8559 35.1392C77.2763 35.1392 76.9866 34.8989 76.9866 34.4182V34.4181ZM78.7249 17.495C78.7249 17.2413 78.826 17.0211 79.0282 16.8342C79.2303 16.6472 79.4796 16.5537 79.776 16.5537C80.059 16.5537 80.3016 16.6472 80.5038 16.8342C80.7059 17.0211 80.807 17.2413 80.807 17.495C80.807 17.7487 80.7059 17.9724 80.5038 18.1659C80.3016 18.3595 80.059 18.4564 79.776 18.4564C79.4931 18.4564 79.2471 18.3595 79.0382 18.1659C78.8293 17.9724 78.7249 17.7487 78.7249 17.495ZM81.8758 29.1908C81.8758 29.0173 81.933 28.847 82.0475 28.6802C82.1621 28.5133 82.3002 28.4298 82.4619 28.4298C82.5697 28.4298 82.7247 28.51 82.9268 28.6702C83.1289 28.8305 83.4186 28.9873 83.7959 29.1408C84.1733 29.2943 84.618 29.3711 85.1301 29.3711C85.8039 29.3711 86.2923 29.251 86.5956 29.0106C86.8988 28.7703 87.0504 28.47 87.0504 28.1095C87.0504 27.6688 86.882 27.3184 86.545 27.0579C86.2081 26.7976 85.7972 26.6007 85.312 26.4671C84.8268 26.3336 84.3418 26.1868 83.8565 26.0265C83.3714 25.8663 82.9605 25.5992 82.6236 25.2255C82.2866 24.8516 82.1182 24.3575 82.1182 23.7434C82.1182 22.9824 82.3911 22.3248 82.9368 21.7707C83.4826 21.2166 84.3147 20.9396 85.4332 20.9396C86.1475 20.9396 86.801 21.0497 87.394 21.27C87.9869 21.4904 88.2833 21.7408 88.2833 22.0211C88.2833 22.1813 88.2193 22.3615 88.0913 22.5618C87.9632 22.7621 87.8049 22.8623 87.6162 22.8623C87.5624 22.8623 87.3029 22.7654 86.8381 22.5719C86.3732 22.3782 85.9116 22.2814 85.4535 22.2814C84.8335 22.2814 84.372 22.4249 84.0687 22.712C83.7656 22.9991 83.6139 23.3228 83.6139 23.6833C83.6139 24.0572 83.7825 24.3509 84.1193 24.5645C84.4562 24.7782 84.8706 24.9451 85.3625 25.0653C85.8543 25.1854 86.3428 25.3323 86.828 25.5058C87.3131 25.6794 87.724 25.9765 88.061 26.3971C88.3978 26.8176 88.5664 27.3617 88.5664 28.0293C88.5664 28.8571 88.2699 29.5113 87.6769 29.992C87.084 30.4726 86.2553 30.713 85.1907 30.713C84.2743 30.713 83.4927 30.5494 82.8459 30.2223C82.1991 29.8951 81.8757 29.5513 81.8757 29.1908H81.8758Z" fill="#010101"/>
</svg>
