<svg width="100" height="51" viewBox="0 0 100 51" fill="none" xmlns="http://www.w3.org/2000/svg">
<path d="M18.5447 19.5894L13.8184 27.7775L18.2937 35.5335L24.2212 25.2668L30.146 15H21.1927L18.5447 19.5894Z" fill="#1697F6"/>
<path d="M12.3689 25.2668L12.6793 25.8067L17.1006 18.1451L18.9172 15H18.2937H6.44141L12.3689 25.2668Z" fill="#AEDDFF"/>
<path d="M21.1927 15C23.433 22.3728 18.2937 35.5335 18.2937 35.5335L13.8184 27.7775L21.1927 15Z" fill="#1867C0"/>
<path d="M18.917 15C9.47793 15 12.6791 25.8067 12.6791 25.8067L18.917 15Z" fill="#7BC6FF"/>
<path d="M38.204 28.8621H35.8806L32.1426 21.4722H34.3692L37.0584 27.0334L39.7422 21.4722H41.9688L38.204 28.8621ZM51.908 26.3719C51.908 26.7412 51.8166 27.089 51.6338 27.4153C51.4509 27.7416 51.1766 28.0266 50.8109 28.2704C50.4451 28.5143 49.988 28.7079 49.4394 28.8513C48.8943 28.9911 48.2561 29.061 47.5247 29.061C46.7932 29.061 46.1514 28.9911 45.5992 28.8513C45.0507 28.7079 44.5935 28.5143 44.2278 28.2704C43.862 28.0266 43.5878 27.7416 43.4049 27.4153C43.222 27.089 43.1305 26.7412 43.1305 26.3719V21.4722H45.1206V25.6565C45.1206 25.904 45.151 26.1388 45.212 26.3611C45.2765 26.5799 45.3948 26.7717 45.567 26.9366C45.7427 27.1015 45.9865 27.2324 46.2984 27.3293C46.6139 27.4261 47.0227 27.4744 47.5247 27.4744C48.0231 27.4744 48.4282 27.4261 48.7402 27.3293C49.0522 27.2324 49.2942 27.1015 49.4663 26.9366C49.6419 26.7717 49.7603 26.5799 49.8213 26.3611C49.8822 26.1388 49.9127 25.904 49.9127 25.6565V21.4722H51.908V26.3719ZM54.1669 28.8621V21.4722H61.6483V23.0481H56.2161V24.2689H61.3686V25.8448H56.2161V27.2862H61.7235V28.8621H54.1669ZM67.7957 23.0803V28.8621H65.8001V23.0803H62.6648V21.4722H70.9365V23.0803H67.7957ZM72.2596 28.8621V21.4722H74.2552V28.8621H72.2596ZM78.5684 23.0481V24.3335H83.3718V25.9094H78.5684V28.8621H76.5735V21.4722H83.6352V23.0481H78.5684ZM89.9762 25.8448V28.8621H87.9858V25.8448L84.4043 21.4722H86.6414L88.9868 24.4464L91.3205 21.4722H93.5583L89.9762 25.8448Z" fill="#1867C0"/>
</svg>
